<svg version="1.1" id="Layer_1" xmlns="http://www.w3.org/2000/svg" xmlns:xlink="http://www.w3.org/1999/xlink" x="0px" y="0px"
	 width="100%" viewBox="0 0 413 297" enable-background="new 0 0 413 297" xml:space="preserve">
<path fill="#000000" opacity="1.000000" stroke="none" 
	d="
M254.000000,298.000000 
	C169.333344,298.000000 85.166695,298.000000 1.000034,298.000000 
	C1.000023,199.000031 1.000023,100.000069 1.000011,1.000074 
	C138.666611,1.000049 276.333221,1.000049 413.999878,1.000025 
	C413.999908,99.999931 413.999908,198.999863 413.999939,297.999878 
	C360.833344,298.000000 307.666656,298.000000 254.000000,298.000000 
M91.998184,128.555756 
	C90.393326,141.225067 90.500069,153.793442 92.899529,166.428528 
	C98.688477,196.912064 114.819832,220.646484 140.150894,237.883881 
	C165.381744,255.053085 193.414185,260.550171 223.545700,255.033127 
	C253.028976,249.634796 276.414459,234.547928 293.958588,210.466736 
	C312.039795,185.648270 318.132751,157.618561 313.801392,127.545853 
	C311.167358,109.257927 304.156128,92.361153 292.802124,77.541733 
	C278.518097,58.898022 260.271332,45.484478 237.983795,38.196972 
	C219.422058,32.127705 200.344666,31.285273 181.030457,34.936264 
	C154.354446,39.978863 132.759338,53.680202 115.674683,74.158600 
	C102.840332,89.542412 95.003983,107.660988 91.998184,128.555756 
z"/>
<path fill="#EC6C00" opacity="1.000000" stroke="none" 
	d="
M91.999237,128.106949 
	C95.003983,107.660988 102.840332,89.542412 115.674683,74.158600 
	C132.759338,53.680202 154.354446,39.978863 181.030457,34.936264 
	C200.344666,31.285273 219.422058,32.127705 237.983795,38.196972 
	C260.271332,45.484478 278.518097,58.898022 292.802124,77.541733 
	C304.156128,92.361153 311.167358,109.257927 313.801392,127.545853 
	C318.132751,157.618561 312.039795,185.648270 293.958588,210.466736 
	C276.414459,234.547928 253.028976,249.634796 223.545700,255.033127 
	C193.414185,260.550171 165.381744,255.053085 140.150894,237.883881 
	C114.819832,220.646484 98.688477,196.912064 92.899529,166.428528 
	C90.500069,153.793442 90.393326,141.225067 91.999237,128.106949 
M245.700867,45.892254 
	C221.292404,34.913109 196.251709,34.085934 170.845566,41.641609 
	C148.688370,48.231068 131.047134,61.502472 116.948792,79.580688 
	C97.436256,104.601509 91.200745,133.315308 96.309273,164.026566 
	C100.896484,191.603806 115.514633,213.914322 137.648972,231.095520 
	C147.524963,238.761520 158.496017,244.322098 170.478058,248.081787 
	C185.963196,252.940689 201.600082,254.091446 217.681808,252.091965 
	C229.676605,250.600632 241.006958,246.983795 251.571884,241.565552 
	C265.575165,234.383957 277.662048,224.578766 287.534302,212.063782 
	C301.316162,194.592636 309.223389,174.756989 310.840546,152.772446 
	C312.463531,130.708359 307.672546,109.801605 296.237701,90.583824 
	C284.288269,70.501236 267.843445,55.520847 245.700867,45.892254 
z"/>
<path fill="#000000" opacity="1.000000" stroke="none" 
	d="
M246.087128,45.943451 
	C267.843445,55.520847 284.288269,70.501236 296.237701,90.583824 
	C307.672546,109.801605 312.463531,130.708359 310.840546,152.772446 
	C309.223389,174.756989 301.316162,194.592636 287.534302,212.063782 
	C277.662048,224.578766 265.575165,234.383957 251.571884,241.565552 
	C241.006958,246.983795 229.676605,250.600632 217.681808,252.091965 
	C201.600082,254.091446 185.963196,252.940689 170.478058,248.081787 
	C158.496017,244.322098 147.524963,238.761520 137.648972,231.095520 
	C115.514633,213.914322 100.896484,191.603806 96.309273,164.026566 
	C91.200745,133.315308 97.436256,104.601509 116.948792,79.580688 
	C131.047134,61.502472 148.688370,48.231068 170.845566,41.641609 
	C196.251709,34.085934 221.292404,34.913109 246.087128,45.943451 
M130.238159,84.994331 
	C128.455276,85.103394 125.696365,80.533768 124.272446,86.280502 
	C124.044044,87.110451 124.000374,88.544006 123.559296,88.678993 
	C117.768822,90.451042 122.595612,91.816612 123.306053,93.693115 
	C123.181320,93.822525 123.056580,93.951935 122.154526,94.010025 
	C120.866341,94.066422 119.578163,94.122810 117.668869,94.206398 
	C118.528503,95.530342 119.105560,96.419083 119.305634,97.694290 
	C119.180573,97.823692 119.055511,97.953102 118.185204,98.015015 
	C114.992126,98.176765 115.629059,99.508751 117.506577,100.730217 
	C119.688828,102.149933 122.080399,103.247902 124.381119,104.485519 
	C124.156525,104.991379 123.931923,105.497238 123.707329,106.003098 
	C120.286598,104.988647 116.865860,103.974197 113.445129,102.959755 
	C113.298920,103.498543 113.152718,104.037331 113.006508,104.576118 
	C115.664154,105.733894 118.253700,107.112404 121.006516,107.961716 
	C122.514023,108.426804 125.120850,108.638359 125.758392,107.818451 
	C126.658531,106.660812 126.194267,104.442245 126.692947,102.299576 
	C126.818275,102.172470 126.943596,102.045364 127.801140,101.985481 
	C128.502060,101.818695 129.202988,101.651909 130.616287,101.315605 
	C128.419952,99.793114 126.851013,98.705528 125.282074,97.617943 
	C129.531296,99.002159 132.288498,97.799553 133.873093,93.826286 
	C132.212967,91.818871 130.562073,89.822594 129.658722,87.970840 
	C131.318390,88.618553 132.943604,89.390602 134.651627,89.863731 
	C135.563263,90.116257 136.617889,89.852600 137.607971,89.821907 
	C137.341995,88.974274 137.136581,88.101593 136.798294,87.283875 
	C135.907913,85.131569 134.959763,83.003151 134.642960,81.154289 
	C136.480118,83.182159 138.317291,85.210030 140.282791,87.379562 
	C142.906708,84.487038 144.938416,82.247353 146.930405,80.051445 
	C146.260971,78.524269 145.647934,77.125755 144.888184,75.392563 
	C151.982956,78.002365 156.552429,75.449112 157.729385,69.318489 
	C158.497986,69.959763 159.266586,70.601036 160.035187,71.242310 
	C160.241669,71.009605 160.448166,70.776901 160.654648,70.544197 
	C159.188232,67.473671 157.721802,64.403137 156.851501,61.033768 
	C157.985291,61.594433 159.500534,61.870583 160.174515,62.774200 
	C161.637863,64.736145 162.671494,67.018608 164.180115,69.702553 
	C166.633759,64.841278 158.612381,61.504074 163.889023,56.747375 
	C166.507477,60.026485 168.905838,63.029976 171.536713,66.324631 
	C171.126801,61.173775 170.765762,56.636993 170.404724,52.100212 
	C170.137100,52.053188 169.869476,52.006168 169.601852,51.959145 
	C168.900009,53.459702 168.198181,54.960255 167.506042,56.440083 
	C164.931961,54.635029 157.576965,56.176960 156.127213,59.038021 
	C155.820129,59.644051 156.266449,60.631840 155.667282,61.002010 
	C154.908661,60.713528 154.150040,60.425049 152.846207,59.929237 
	C154.063431,63.049416 155.014450,65.487259 155.224197,67.699516 
	C153.162689,67.258347 151.101166,66.817177 148.219528,66.200500 
	C149.461731,65.539368 149.821198,65.273308 150.224365,65.148735 
	C151.117767,64.872688 152.033112,64.667686 152.939514,64.433708 
	C152.080383,63.956814 151.256424,63.152874 150.356400,63.056061 
	C144.474411,62.423332 147.192932,66.979126 146.760529,69.734444 
	C145.972824,69.206940 145.465714,68.755875 144.875336,68.489250 
	C139.008087,65.839523 138.949966,73.884979 134.461487,74.283813 
	C133.527939,74.366768 132.855911,77.393074 131.314911,79.027542 
	C130.737305,79.702133 129.561020,80.555687 129.698746,81.016449 
	C130.055847,82.211090 130.991394,83.232803 131.312210,84.700478 
	C131.185410,84.827293 131.058624,84.954109 130.238159,84.994331 
M289.943329,153.513458 
	C289.831146,150.591797 291.495514,149.892715 294.074310,149.964264 
	C296.341278,150.027161 298.617401,149.759262 300.889496,149.637466 
	C300.860229,149.342239 300.830963,149.047028 300.801697,148.751801 
	C298.099152,148.098434 295.396576,147.445053 293.509338,146.964584 
	C295.974152,145.971924 298.626709,145.255219 300.773285,143.794876 
	C301.317871,143.424377 300.498688,139.371887 299.884857,139.256729 
	C296.650452,138.649902 293.254608,138.495758 289.978149,138.821518 
	C289.207550,138.898132 287.775146,141.981155 288.226410,142.732071 
	C289.258667,144.449814 291.266724,145.581177 292.079254,147.008545 
	C290.806824,147.088455 289.534424,147.168365 287.220917,147.313644 
	C288.196106,150.012253 288.972534,152.160889 289.396179,154.881851 
	C288.600677,155.956894 286.901703,157.546753 287.169159,158.016098 
	C288.217010,159.854996 289.717926,162.456207 291.361603,162.703110 
	C294.026001,163.103302 297.512909,162.616669 299.525818,161.053497 
	C300.744476,160.107086 301.355499,155.725037 297.273163,155.030014 
	C294.767639,154.603455 292.187073,154.617599 289.943329,153.513458 
M288.951050,119.483406 
	C287.953064,118.340569 286.955078,117.197731 285.113739,115.089157 
	C288.290833,114.225090 290.729004,113.561981 293.482178,112.813210 
	C293.199860,115.157394 293.016083,116.259781 293.013824,117.362549 
	C293.013580,117.471725 294.526093,117.840538 294.647644,117.649864 
	C295.228027,116.739098 295.869843,115.698120 295.943420,114.664536 
	C296.193573,111.150696 293.893921,110.049194 291.013214,110.613533 
	C288.510590,111.103813 286.160675,112.373833 283.930450,112.532516 
	C283.475769,110.772980 283.021088,109.013451 282.272339,106.115799 
	C284.806213,107.893776 286.487610,109.073586 288.812439,110.704865 
	C288.812439,107.901611 288.812439,106.160652 288.812439,104.381134 
	C290.527924,105.972809 291.792816,107.146385 293.057678,108.319962 
	C293.525452,107.876701 293.993195,107.433449 294.460968,106.990196 
	C292.958984,105.167130 291.457031,103.344063 289.211670,100.895378 
	C288.644379,98.265915 288.077087,95.636459 287.550690,93.196655 
	C283.543152,96.900269 280.228516,99.963547 276.913849,103.026825 
	C277.247589,103.300591 277.581299,103.574364 277.915039,103.848129 
	C285.522888,99.042068 285.639648,99.018181 289.452179,101.896561 
	C285.936005,103.397118 282.419861,104.897667 277.839874,106.852219 
	C280.292633,109.396828 282.096497,111.268250 283.965820,113.837448 
	C282.401367,118.376396 283.392303,119.631454 288.588623,120.782677 
	C287.359680,121.349556 286.130768,121.916428 284.442841,122.695038 
	C287.785980,123.446922 289.823608,123.905190 291.861267,124.363457 
	C291.760498,124.756882 291.659760,125.150307 291.559021,125.543724 
	C289.793732,125.982201 288.028473,126.420670 285.280701,127.103172 
	C287.021057,128.273468 287.795105,128.793976 288.262848,129.888412 
	C288.401306,130.583633 288.539795,131.278854 288.678253,131.974075 
	C290.191010,131.591003 291.703766,131.207916 294.147583,130.589081 
	C291.482300,132.826218 289.632263,134.379074 287.782227,135.931931 
	C287.991150,136.358719 288.200104,136.785492 288.409058,137.212265 
	C292.565979,136.696854 296.722900,136.181442 300.879822,135.666016 
	C300.890259,135.260147 300.900696,134.854263 300.911133,134.448380 
	C299.209106,134.197052 297.507080,133.945724 295.782227,133.691025 
	C297.422424,132.068130 298.911316,130.594910 300.400238,129.121689 
	C300.117615,128.837357 299.835022,128.553024 299.552399,128.268692 
	C295.860321,128.641815 292.168213,129.014938 289.044739,128.656967 
	C292.406219,127.656403 295.767700,126.655853 299.129181,125.655296 
	C298.962402,125.142639 298.795654,124.629974 298.628906,124.117317 
	C297.193970,124.316681 295.759033,124.516045 294.324127,124.715416 
	C294.085236,124.391968 293.846344,124.068527 293.607452,123.745079 
	C295.048431,122.356941 296.489410,120.968811 298.693573,118.845497 
	C294.736633,119.409203 291.757446,119.833611 288.951050,119.483406 
M114.069252,164.569107 
	C115.013695,164.355637 116.302208,164.449707 116.827705,163.861771 
	C117.787163,162.788315 118.712326,161.351364 118.843941,159.988052 
	C118.931450,159.081558 117.596191,157.184967 116.932106,157.200485 
	C113.293869,157.285568 109.666245,157.824768 106.034981,158.207962 
	C106.102440,158.793442 106.169899,159.378906 106.237358,159.964386 
	C108.116982,159.835571 109.994972,159.665466 111.876755,159.590729 
	C113.445709,159.528427 115.019112,159.577957 116.590553,159.577957 
	C116.625298,160.180222 116.660049,160.782471 116.694794,161.384735 
	C113.205124,162.217667 109.715462,163.050598 106.225792,163.883545 
	C106.261147,164.315826 106.296501,164.748123 106.331848,165.180405 
	C108.792122,165.180405 111.252388,165.180405 113.473175,165.838806 
	C109.861938,166.266205 107.204620,168.259720 108.343048,171.843521 
	C108.813118,173.323318 112.392502,174.042252 114.680756,174.619507 
	C115.783180,174.897614 117.170807,174.045242 117.931801,174.455795 
	C116.944878,176.569077 115.957954,178.682358 114.971031,180.795639 
	C114.734421,180.793839 114.497810,180.792038 114.261200,180.790222 
	C114.371941,179.292160 114.482674,177.794098 114.593407,176.296036 
	C114.239326,176.087173 113.885254,175.878326 113.531181,175.669464 
	C112.695427,177.318375 111.473030,178.913452 111.231827,180.645172 
	C111.146400,181.258499 113.871674,183.130936 114.580742,182.809830 
	C116.141388,182.103088 117.350563,180.455566 118.476082,179.014618 
	C119.146126,178.156815 119.385132,176.962311 119.817924,175.919189 
	C120.188995,176.073730 120.560066,176.228287 120.931137,176.382843 
	C120.697960,177.830887 120.464783,179.278946 120.231606,180.726990 
	C120.764084,180.946304 121.296570,181.165604 121.829048,181.384918 
	C122.548943,179.874374 123.865250,178.366974 123.873184,176.852692 
	C123.894165,172.843796 120.396713,174.438370 118.481941,173.170319 
	C119.275635,171.332687 120.069328,169.495071 120.863022,167.657440 
	C118.430550,166.877487 115.998077,166.097534 114.069252,164.569107 
M221.995331,59.960564 
	C224.045563,61.155342 226.095810,62.350117 228.146042,63.544895 
	C228.371292,63.107983 228.596558,62.671074 228.821808,62.234165 
	C227.467529,60.826916 226.113251,59.419662 224.544525,57.789562 
	C227.074875,57.474449 228.486633,57.298637 229.898392,57.122833 
	C228.862015,56.126331 227.825638,55.129826 226.104477,53.474884 
	C228.204300,53.124397 230.039597,52.818062 231.874893,52.511726 
	C231.977966,52.175858 232.081039,51.839989 232.184113,51.504116 
	C230.017395,50.633060 227.850677,49.762005 225.836044,48.952087 
	C224.364426,52.655235 223.022583,56.031834 221.942856,58.544674 
	C222.235306,55.198582 222.527756,51.852489 222.820190,48.506401 
	C222.332794,48.462875 221.845383,48.419353 221.357971,48.375828 
	C220.789993,51.016590 220.222000,53.657349 219.833649,55.462936 
	C217.794571,56.230103 216.126755,56.857590 213.257584,57.937069 
	C213.538361,55.430866 213.665955,53.109322 214.247375,50.907619 
	C214.306396,50.684216 217.098480,51.182587 219.988525,51.492542 
	C218.321442,49.610138 217.213058,47.335556 216.064590,47.315132 
	C214.555481,47.288296 211.830322,48.913559 211.713135,50.044430 
	C211.381378,53.245968 211.940094,56.598331 212.691177,59.762363 
	C212.765762,60.076550 216.566223,59.506283 218.799713,59.333992 
	C218.824585,61.791889 220.094650,61.365181 221.995331,59.960564 
M240.969482,56.340878 
	C239.903793,53.871929 239.903793,53.871929 236.281860,58.621525 
	C236.057678,56.324379 235.851593,54.212749 235.645523,52.101116 
	C235.159760,52.006241 234.673996,51.911369 234.188248,51.816498 
	C232.688324,55.689907 231.188416,59.563316 229.688507,63.436722 
	C230.130341,63.652630 230.572159,63.868538 231.013992,64.084442 
	C231.856232,62.940083 232.698471,61.795719 233.586258,60.589497 
	C234.307861,62.530491 234.955017,64.271179 235.768616,66.459602 
	C237.099899,64.633110 238.088669,63.276520 239.011642,62.783146 
	C239.479568,64.757065 239.859406,68.405838 240.429535,68.435822 
	C244.430878,68.646248 246.324265,71.980301 249.301743,73.570648 
	C249.969772,73.927460 250.990982,73.623062 251.849594,73.623062 
	C252.122681,73.236465 252.395752,72.849861 252.668839,72.463264 
	C251.178574,71.448555 249.688324,70.433838 248.198059,69.419128 
	C248.324280,69.052406 248.450500,68.685677 248.576721,68.318954 
	C250.633926,68.318954 252.691116,68.318954 255.278687,68.318954 
	C253.668671,66.425179 252.666412,65.246254 251.267944,63.601318 
	C254.001038,63.993877 255.740540,64.243729 257.480042,64.493576 
	C257.525787,63.978554 257.571533,63.463531 257.617279,62.948509 
	C255.003250,62.416088 252.735001,56.957409 249.303955,62.303028 
	C249.177505,62.176758 249.051041,62.050491 248.989182,61.144474 
	C249.595627,57.932037 247.446686,56.702374 244.979721,56.224957 
	C243.701828,55.977654 242.221542,56.776058 240.969482,56.340878 
M271.299438,80.307457 
	C271.172150,80.181755 271.044830,80.056061 271.012817,79.172379 
	C271.362701,77.558372 271.712555,75.944374 272.062408,74.330368 
	C271.736145,74.151520 271.409912,73.972664 271.083649,73.793816 
	C268.878754,75.764915 266.673859,77.736015 264.468964,79.707115 
	C264.237823,79.542282 264.006683,79.377449 263.775574,79.212616 
	C264.918427,76.335861 266.061279,73.459099 267.204132,70.582344 
	C266.818817,70.234764 266.433472,69.887192 266.048157,69.539612 
	C262.309906,71.946396 258.571655,74.353172 254.833405,76.759956 
	C254.961121,77.090645 255.088837,77.421333 255.216568,77.752029 
	C257.085144,77.578499 258.953735,77.404976 260.110779,77.297523 
	C260.806366,79.931221 261.368988,82.061577 262.046570,84.627235 
	C264.263306,83.118286 265.449921,82.310547 265.787537,82.080742 
	C266.581268,84.860649 266.825165,87.826004 268.257812,90.012436 
	C269.262665,91.545959 272.522858,93.282532 273.664124,92.710480 
	C276.389862,91.344208 278.818695,88.911804 280.558655,86.358711 
	C281.042938,85.648109 278.811493,82.932755 277.617157,81.288803 
	C276.877350,80.270470 275.744171,79.537933 274.441864,78.366013 
	C273.869720,78.846680 272.773682,79.767433 271.299438,80.307457 
M246.840149,235.013367 
	C252.198685,235.158127 252.990936,230.692886 254.691727,227.000809 
	C256.870178,227.000809 259.023224,227.169281 261.129852,226.929718 
	C262.182465,226.810043 263.687164,226.163208 264.014130,225.359100 
	C264.383087,224.451706 263.955566,222.908798 263.356415,221.974503 
	C261.010010,218.315781 258.271393,221.023056 255.284195,221.307571 
	C255.154984,221.175385 255.025772,221.043213 254.971939,220.131210 
	C255.733810,217.605423 256.495667,215.079651 257.267944,212.519348 
	C253.140793,212.005188 249.799820,211.588989 245.570953,211.062164 
	C246.303696,213.050995 246.547028,214.648056 247.386581,215.816833 
	C250.038940,219.509186 249.168045,222.573807 246.093033,225.383484 
	C245.005524,226.377167 243.572372,227.081085 242.740311,228.236511 
	C242.126465,229.088928 242.231995,230.459366 241.985489,231.765961 
	C243.884598,231.938644 245.182846,232.056702 246.893173,232.212219 
	C246.109283,233.262756 245.723251,233.780090 244.900818,234.675781 
	C244.783051,235.047684 244.665268,235.419586 244.547501,235.791489 
	C245.055984,235.554459 245.564468,235.317429 246.840149,235.013367 
M276.701447,212.692612 
	C276.828796,212.818604 276.956116,212.944580 277.055054,213.840073 
	C278.411713,214.701309 279.768372,215.562531 281.370239,216.579453 
	C282.836670,212.235016 279.665192,208.098602 283.867004,205.442993 
	C284.123016,205.281189 283.109711,203.111023 282.574829,201.547318 
	C280.555969,203.039642 279.164764,204.068024 277.269501,205.468994 
	C276.818787,201.715942 276.443726,198.592667 276.006805,194.954376 
	C274.996826,195.374573 273.654144,195.933182 273.154663,196.141006 
	C271.009277,194.084763 269.101288,192.256027 266.686920,189.941986 
	C266.028748,193.131958 266.251190,195.546341 265.150330,196.776367 
	C260.705292,201.742981 261.328644,204.987778 268.168243,207.750900 
	C261.623505,212.512878 269.774872,212.805603 270.329071,215.583511 
	C271.948792,214.817627 273.580902,214.076294 275.180084,213.269699 
	C275.612305,213.051712 275.944794,212.636002 276.701447,212.692612 
M143.729233,195.304565 
	C138.234177,195.582031 132.739120,195.859497 126.565842,196.171204 
	C128.702850,197.698593 130.642639,199.085022 132.756058,200.595551 
	C119.947975,202.241074 119.947975,202.241074 120.820038,205.822845 
	C123.013206,205.575836 125.207611,205.328674 127.402008,205.081528 
	C127.415100,205.466446 127.428192,205.851364 127.441292,206.236282 
	C126.348999,206.299820 125.256714,206.363342 122.849091,206.503372 
	C124.480698,209.116653 125.672615,211.025696 126.711563,212.689728 
	C126.531052,213.567749 126.313469,214.626160 125.882545,216.722260 
	C128.325775,215.522400 129.791183,214.802734 130.810379,214.302216 
	C131.336929,216.027557 131.812851,217.586914 132.646683,220.319107 
	C136.787582,215.207138 140.112030,211.195862 143.298462,207.077789 
	C143.827682,206.393845 143.894012,205.250153 143.934479,204.308609 
	C144.056549,201.469238 144.060394,198.624802 144.451614,194.819458 
	C145.974457,196.054962 147.443222,197.365173 149.029556,198.512955 
	C155.768097,203.388672 162.167343,208.901108 169.412598,212.859222 
	C176.006683,216.461594 183.533386,218.356796 190.797058,221.059616 
	C191.233444,228.019409 191.033569,228.336121 185.204010,229.358551 
	C184.577362,227.925797 183.947357,226.485382 182.708710,223.653381 
	C179.107986,226.616058 175.930206,229.230728 172.063385,232.412354 
	C174.191101,232.896301 175.176498,233.120422 176.510010,233.423737 
	C168.557327,236.581772 168.557327,236.581772 168.444107,239.079483 
	C170.547302,238.845306 172.593369,238.617477 174.639435,238.389648 
	C174.336502,238.715958 174.033585,239.042267 173.730652,239.368591 
	C175.621246,241.022903 177.511856,242.677216 179.961182,244.820419 
	C181.296997,241.994003 182.321152,239.826996 183.086395,238.207825 
	C184.584824,238.990784 185.800674,239.626083 187.067764,240.288147 
	C186.066971,243.302185 185.057571,246.342194 184.010834,249.494614 
	C187.640411,251.390610 188.471619,249.602829 189.075394,246.510345 
	C189.778793,242.907486 188.538834,238.596573 192.463379,235.997681 
	C195.115036,234.241714 198.825195,232.646072 193.408981,229.572891 
	C192.923218,229.297272 193.054703,227.706955 193.115784,226.740891 
	C193.249466,224.627197 193.522171,222.522308 193.655594,221.219528 
	C200.038254,220.821320 206.525986,220.530380 212.992920,219.990356 
	C228.366058,218.706604 241.861694,212.460999 253.022614,202.256958 
	C274.969971,182.191193 283.161926,157.163681 276.946106,127.896446 
	C273.157959,110.059898 263.596222,95.711861 249.160706,84.601807 
	C238.585205,76.462540 226.747894,71.794617 213.448334,69.801247 
	C197.394379,67.395035 182.127045,69.664902 168.199982,77.185715 
	C145.817505,89.272568 131.631805,107.743500 127.875908,133.643127 
	C124.818611,154.725403 129.687943,173.539368 142.053329,190.669403 
	C143.147217,192.184784 143.565186,194.188110 143.729233,195.304565 
M228.980545,243.484695 
	C231.109695,242.530579 233.238861,241.576447 235.368027,240.622330 
	C235.214539,240.098938 235.061050,239.575562 234.907578,239.052185 
	C232.405045,238.538757 229.902512,238.025314 227.394943,237.510849 
	C228.892059,234.580307 228.194855,232.624176 224.391159,232.592194 
	C226.333115,230.933029 227.873566,229.616898 229.954193,227.839233 
	C225.500443,226.517151 222.481461,225.620987 219.395981,224.705078 
	C219.528137,227.449997 219.622238,229.404541 219.716324,231.359085 
	C219.202682,231.614929 218.689026,231.870773 218.175385,232.126617 
	C216.701080,230.549164 215.226776,228.971725 213.390411,227.006897 
	C212.824692,227.049423 211.536194,227.146301 211.668381,227.136368 
	C210.045197,230.667236 208.799805,233.254807 207.682770,235.896637 
	C207.422867,236.511322 207.389664,237.843369 207.612534,237.931244 
	C208.497070,238.280014 209.524460,238.266525 210.964722,238.444992 
	C209.585892,240.412888 208.327515,242.208878 206.112228,245.370621 
	C208.721725,245.169586 210.448456,244.537735 211.749023,245.030563 
	C215.540115,246.467072 215.473328,246.643341 216.500504,242.826019 
	C218.584854,243.123535 220.614670,243.598557 222.655243,243.650253 
	C224.538406,243.697983 226.433075,243.291504 228.980545,243.484695 
M156.082367,214.740891 
	C156.465836,216.414459 156.849304,218.088028 157.294159,220.029495 
	C153.822159,219.331161 150.202866,218.540863 146.554504,217.921967 
	C145.825256,217.798264 144.985107,218.328308 144.196106,218.556900 
	C144.666306,219.322205 144.962082,220.464996 145.640961,220.778641 
	C147.349869,221.568100 149.231613,221.983459 151.830276,222.794022 
	C148.464737,222.954453 145.892899,223.077057 141.797958,223.272278 
	C143.413025,225.311890 144.243774,226.580505 145.300369,227.619400 
	C146.024002,228.330963 147.701477,228.583527 147.853241,229.280609 
	C148.684250,233.097580 151.807007,232.478546 153.793488,231.789017 
	C157.744202,230.417633 161.409988,228.207642 165.139542,226.241730 
	C165.556839,226.021744 165.928024,225.063873 165.805099,224.578842 
	C165.177490,222.102554 164.701935,219.505661 163.560532,217.262726 
	C162.173187,214.536545 160.500580,211.378860 156.082367,214.740891 
M107.954643,135.899063 
	C107.571434,134.225800 107.188225,132.552521 106.805008,130.879242 
	C106.275681,131.016998 105.746353,131.154755 105.217026,131.292496 
	C105.217026,133.381866 105.217026,135.471237 105.217026,138.305511 
	C109.498947,138.591553 113.624245,138.867111 119.156311,139.236664 
	C116.073631,135.068314 122.685112,128.877060 112.617271,128.329102 
	C116.078026,126.839012 118.091888,125.971909 120.105759,125.104797 
	C117.689819,124.164398 115.550919,124.068092 113.415329,123.923233 
	C111.393494,123.786087 108.667366,122.734055 107.539833,123.657722 
	C106.221191,124.737938 106.297523,127.521011 105.757919,129.606949 
	C109.958549,130.300781 113.241737,130.843094 117.167908,131.491592 
	C115.898895,133.666641 114.826073,135.505417 113.561668,137.672562 
	C112.731079,134.982864 112.282364,133.529816 111.833656,132.076767 
	C111.099159,133.263123 110.388245,134.465393 109.608437,135.621170 
	C109.467873,135.829514 109.043755,135.846527 107.954643,135.899063 
M114.219208,116.463875 
	C112.182266,117.232430 110.145325,118.000984 108.108383,118.769539 
	C108.012718,119.266502 107.917061,119.763458 107.821396,120.260414 
	C112.035645,121.277771 116.249893,122.295120 120.464134,123.312477 
	C120.609741,122.775330 120.755348,122.238190 120.900948,121.701050 
	C118.849937,121.008545 116.798927,120.316032 114.637093,119.586113 
	C117.243103,118.926231 119.627510,118.322456 122.011925,117.718689 
	C122.021378,117.229797 122.030838,116.740906 122.040291,116.252014 
	C117.861992,115.096107 113.683685,113.940193 109.505379,112.784286 
	C109.316154,113.389160 109.126923,113.994041 108.937698,114.598923 
	C110.512642,115.089149 112.087585,115.579376 114.219208,116.463875 
M286.005920,165.502228 
	C286.108459,167.555130 285.684631,169.872009 286.527832,171.553497 
	C286.972717,172.440735 289.627045,172.220047 291.634888,172.558838 
	C291.634888,170.785858 291.634888,169.481705 291.634888,167.653671 
	C290.198303,168.497482 289.255707,169.051132 288.313110,169.604797 
	C288.070190,169.204361 287.827271,168.803925 287.584351,168.403503 
	C288.671753,167.617752 289.970734,166.002670 290.803467,166.215118 
	C292.663513,166.689606 294.291016,168.075577 296.248627,169.228897 
	C294.760742,170.482529 293.854523,171.246078 292.948303,172.009613 
	C293.134369,172.418808 293.320404,172.828003 293.506470,173.237198 
	C294.921814,172.667542 297.364319,172.310898 297.535950,171.483322 
	C297.879578,169.826294 297.572815,167.326508 296.478058,166.218430 
	C293.742645,163.449661 290.197205,163.127686 286.005920,165.502228 
M186.554016,60.950859 
	C189.264282,57.380749 188.637039,53.624626 185.931274,50.778316 
	C184.792953,49.580856 181.746109,50.197655 179.566864,49.989708 
	C179.708862,52.991020 179.389725,56.112068 180.128738,58.958363 
	C180.803192,61.555901 183.035767,62.879089 186.554016,60.950859 
M116.011292,140.011002 
	C112.393486,140.011002 108.775681,140.011002 105.157875,140.011002 
	C105.139160,140.508224 105.120438,141.005447 105.101723,141.502655 
	C106.593231,141.777008 108.084732,142.051346 110.154251,142.432007 
	C109.097687,143.723816 108.346619,145.059494 107.219490,145.876160 
	C106.444603,146.437592 105.147873,146.278824 104.084396,146.441971 
	C104.205032,146.742752 104.325668,147.043549 104.446297,147.344345 
	C108.581024,147.344345 112.715744,147.344345 117.616676,147.344345 
	C115.356270,145.215546 109.968933,147.375732 112.599510,142.153244 
	C117.880371,143.088974 117.880371,143.088974 116.011292,140.011002 
M209.987015,54.698757 
	C208.322006,53.046978 206.656998,51.395195 204.991989,49.743416 
	C205.209839,49.500980 205.427689,49.258545 205.645554,49.016106 
	C206.933090,49.652805 208.220642,50.289505 209.508179,50.926205 
	C209.819336,50.493816 210.130493,50.061424 210.441666,49.629032 
	C209.318695,48.754978 208.282181,47.362938 207.047714,47.156898 
	C205.882721,46.962448 203.773682,47.673294 203.352448,48.578262 
	C201.291458,53.005947 205.538223,54.099621 208.262177,55.947361 
	C208.032593,56.300919 207.803024,56.654472 207.573456,57.008030 
	C205.879898,56.416641 204.186356,55.825249 202.492798,55.233860 
	C202.205612,55.517178 201.918427,55.800491 201.631226,56.083809 
	C203.052017,57.385357 204.472824,58.686905 205.893616,59.988449 
	C207.261597,58.493919 208.629562,56.999386 209.987015,54.698757 
M191.476883,57.005013 
	C191.800919,56.347866 191.983124,55.539719 192.483200,55.069981 
	C193.183395,54.412262 194.120392,54.006630 194.956070,53.493149 
	C194.116150,52.983673 193.283569,52.461475 192.433380,51.969749 
	C191.964905,51.698795 191.466797,51.479050 190.769852,51.129917 
	C192.475540,50.032211 193.824219,49.164257 195.172913,48.296303 
	C194.853485,47.654320 194.534073,47.012341 194.214645,46.370361 
	C192.158798,47.395836 188.747894,48.051933 188.345490,49.528122 
	C187.634308,52.137062 188.639679,55.267654 189.193298,58.128281 
	C189.324890,58.808170 190.511017,59.283966 191.212067,59.853630 
	C191.437012,59.136631 191.661957,58.419628 191.476883,57.005013 
M285.427917,176.996124 
	C288.087006,178.992279 290.746124,180.988419 293.405212,182.984573 
	C293.643982,182.698303 293.882751,182.412048 294.121521,182.125778 
	C293.202698,180.873917 292.283875,179.622040 291.705414,178.833923 
	C293.268585,177.911026 294.610016,177.119064 296.520355,175.991196 
	C291.120483,175.405884 287.128082,174.973129 282.620422,174.484512 
	C283.490479,175.513474 284.081940,176.212952 285.427917,176.996124 
M104.999336,153.434464 
	C105.322723,154.586121 105.620171,155.747604 106.042603,156.861710 
	C106.064789,156.920197 107.670090,156.470474 107.662888,156.434967 
	C106.953705,152.939697 109.678055,154.293030 111.158798,153.926102 
	C113.436142,153.361740 115.712204,152.792191 117.988808,152.224854 
	C117.908218,151.963348 117.827621,151.701859 117.747025,151.440369 
	C113.644287,151.135315 109.541542,150.830261 105.168335,150.505096 
	C105.179886,150.362335 105.089767,151.476074 104.999336,153.434464 
z"/>
<path fill="#EB6B00" opacity="1.000000" stroke="none" 
	d="
M144.297089,195.964813 
	C143.565186,194.188110 143.147217,192.184784 142.053329,190.669403 
	C129.687943,173.539368 124.818611,154.725403 127.875908,133.643127 
	C131.631805,107.743500 145.817505,89.272568 168.199982,77.185715 
	C182.127045,69.664902 197.394379,67.395035 213.448334,69.801247 
	C226.747894,71.794617 238.585205,76.462540 249.160706,84.601807 
	C263.596222,95.711861 273.157959,110.059898 276.946106,127.896446 
	C283.161926,157.163681 274.969971,182.191193 253.022614,202.256958 
	C241.861694,212.460999 228.366058,218.706604 212.992920,219.990356 
	C206.525986,220.530380 200.038254,220.821320 193.655594,221.219528 
	C193.522171,222.522308 193.249466,224.627197 193.115784,226.740891 
	C193.054703,227.706955 192.923218,229.297272 193.408981,229.572891 
	C198.825195,232.646072 195.115036,234.241714 192.463379,235.997681 
	C188.538834,238.596573 189.778793,242.907486 189.075394,246.510345 
	C188.471619,249.602829 187.640411,251.390610 184.010834,249.494614 
	C185.057571,246.342194 186.066971,243.302185 187.067764,240.288147 
	C185.800674,239.626083 184.584824,238.990784 183.086395,238.207825 
	C182.321152,239.826996 181.296997,241.994003 179.961182,244.820419 
	C177.511856,242.677216 175.621246,241.022903 173.730652,239.368591 
	C174.033585,239.042267 174.336502,238.715958 174.639435,238.389648 
	C172.593369,238.617477 170.547302,238.845306 168.444107,239.079483 
	C168.557327,236.581772 168.557327,236.581772 176.510010,233.423737 
	C175.176498,233.120422 174.191101,232.896301 172.063385,232.412354 
	C175.930206,229.230728 179.107986,226.616058 182.708710,223.653381 
	C183.947357,226.485382 184.577362,227.925797 185.204010,229.358551 
	C191.033569,228.336121 191.233444,228.019409 190.797058,221.059616 
	C183.533386,218.356796 176.006683,216.461594 169.412598,212.859222 
	C162.167343,208.901108 155.768097,203.388672 149.029556,198.512955 
	C147.443222,197.365173 145.974457,196.054962 144.321075,195.322372 
	C144.190552,195.825287 144.297089,195.964813 144.297089,195.964813 
M261.012726,100.518547 
	C255.557648,95.322594 250.522110,89.574890 244.562088,85.042999 
	C231.249405,74.920242 215.869415,71.446472 199.229172,71.898514 
	C182.755920,72.346016 168.332718,78.206543 156.187714,88.587944 
	C138.444275,103.754799 129.213379,123.107666 129.831192,147.118179 
	C130.284088,164.719131 136.195282,179.955444 147.516083,192.797409 
	C166.185440,213.975342 190.292267,222.307831 217.755783,216.696365 
	C249.064407,210.299286 271.945374,185.493515 275.806061,152.871384 
	C278.037384,134.017136 273.202728,116.403809 261.012726,100.518547 
z"/>
<path fill="#EC6C00" opacity="1.000000" stroke="none" 
	d="
M228.651611,243.284897 
	C226.433075,243.291504 224.538406,243.697983 222.655243,243.650253 
	C220.614670,243.598557 218.584854,243.123535 216.500504,242.826019 
	C215.473328,246.643341 215.540115,246.467072 211.749023,245.030563 
	C210.448456,244.537735 208.721725,245.169586 206.112228,245.370621 
	C208.327515,242.208878 209.585892,240.412888 210.964722,238.444992 
	C209.524460,238.266525 208.497070,238.280014 207.612534,237.931244 
	C207.389664,237.843369 207.422867,236.511322 207.682770,235.896637 
	C208.799805,233.254807 210.045197,230.667236 211.668381,227.136368 
	C211.536194,227.146301 212.824692,227.049423 213.390411,227.006897 
	C215.226776,228.971725 216.701080,230.549164 218.175385,232.126617 
	C218.689026,231.870773 219.202682,231.614929 219.716324,231.359085 
	C219.622238,229.404541 219.528137,227.449997 219.395981,224.705078 
	C222.481461,225.620987 225.500443,226.517151 229.954193,227.839233 
	C227.873566,229.616898 226.333115,230.933029 224.391159,232.592194 
	C228.194855,232.624176 228.892059,234.580307 227.394943,237.510849 
	C229.902512,238.025314 232.405045,238.538757 234.907578,239.052185 
	C235.061050,239.575562 235.214539,240.098938 235.368027,240.622330 
	C233.238861,241.576447 231.109695,242.530579 228.651611,243.284897 
z"/>
<path fill="#EC6C00" opacity="1.000000" stroke="none" 
	d="
M144.013153,195.634689 
	C144.297089,195.964813 144.190552,195.825287 144.150452,195.803802 
	C144.060394,198.624802 144.056549,201.469238 143.934479,204.308609 
	C143.894012,205.250153 143.827682,206.393845 143.298462,207.077789 
	C140.112030,211.195862 136.787582,215.207138 132.646683,220.319107 
	C131.812851,217.586914 131.336929,216.027557 130.810379,214.302216 
	C129.791183,214.802734 128.325775,215.522400 125.882545,216.722260 
	C126.313469,214.626160 126.531052,213.567749 126.711563,212.689728 
	C125.672615,211.025696 124.480698,209.116653 122.849091,206.503372 
	C125.256714,206.363342 126.348999,206.299820 127.441292,206.236282 
	C127.428192,205.851364 127.415100,205.466446 127.402008,205.081528 
	C125.207611,205.328674 123.013206,205.575836 120.820038,205.822845 
	C119.947975,202.241074 119.947975,202.241074 132.756058,200.595551 
	C130.642639,199.085022 128.702850,197.698593 126.565842,196.171204 
	C132.739120,195.859497 138.234177,195.582031 144.013153,195.634689 
z"/>
<path fill="#EB6C00" opacity="1.000000" stroke="none" 
	d="
M276.323059,212.311066 
	C275.944794,212.636002 275.612305,213.051712 275.180084,213.269699 
	C273.580902,214.076294 271.948792,214.817627 270.329071,215.583527 
	C269.774872,212.805603 261.623505,212.512878 268.168243,207.750900 
	C261.328644,204.987778 260.705292,201.742981 265.150330,196.776367 
	C266.251190,195.546341 266.028748,193.131958 266.686920,189.941986 
	C269.101288,192.256027 271.009277,194.084763 273.154663,196.141006 
	C273.654144,195.933182 274.996826,195.374573 276.006805,194.954376 
	C276.443726,198.592667 276.818787,201.715942 277.269501,205.468994 
	C279.164764,204.068024 280.555969,203.039642 282.574829,201.547318 
	C283.109711,203.111023 284.123016,205.281189 283.867004,205.442993 
	C279.665192,208.098602 282.836670,212.235016 281.370239,216.579453 
	C279.768372,215.562531 278.411713,214.701309 277.335632,213.338959 
	C277.664124,212.389511 277.712067,211.941162 277.760010,211.492828 
	C277.281036,211.765579 276.802063,212.038330 276.323059,212.311066 
M271.508118,212.821991 
	C271.082428,212.717529 270.656769,212.613068 270.231079,212.508621 
	C270.484314,212.785995 270.737518,213.063354 271.508118,212.821991 
z"/>
<path fill="#EC6C00" opacity="1.000000" stroke="none" 
	d="
M156.274185,214.406052 
	C160.500580,211.378860 162.173187,214.536545 163.560532,217.262726 
	C164.701935,219.505661 165.177490,222.102554 165.805099,224.578842 
	C165.928024,225.063873 165.556839,226.021744 165.139542,226.241730 
	C161.409988,228.207642 157.744202,230.417633 153.793488,231.789017 
	C151.807007,232.478546 148.684250,233.097580 147.853241,229.280609 
	C147.701477,228.583527 146.024002,228.330963 145.300369,227.619400 
	C144.243774,226.580505 143.413025,225.311890 141.797958,223.272278 
	C145.892899,223.077057 148.464737,222.954453 151.830276,222.794022 
	C149.231613,221.983459 147.349869,221.568100 145.640961,220.778641 
	C144.962082,220.464996 144.666306,219.322205 144.196106,218.556900 
	C144.985107,218.328308 145.825256,217.798264 146.554504,217.921967 
	C150.202866,218.540863 153.822159,219.331161 157.294159,220.029495 
	C156.849304,218.088028 156.465836,216.414459 156.274185,214.406052 
z"/>
<path fill="#EB6C00" opacity="1.000000" stroke="none" 
	d="
M255.668182,221.707642 
	C258.271393,221.023056 261.010010,218.315781 263.356415,221.974503 
	C263.955566,222.908798 264.383087,224.451706 264.014130,225.359100 
	C263.687164,226.163208 262.182465,226.810043 261.129852,226.929718 
	C259.023224,227.169281 256.870178,227.000809 254.691727,227.000809 
	C252.990936,230.692886 252.198685,235.158127 246.273422,234.850372 
	C245.583542,234.557404 245.460373,234.427429 245.337219,234.297440 
	C245.723251,233.780090 246.109283,233.262756 246.893173,232.212219 
	C245.182846,232.056702 243.884598,231.938644 241.985489,231.765961 
	C242.231995,230.459366 242.126465,229.088928 242.740311,228.236511 
	C243.572372,227.081085 245.005524,226.377167 246.093033,225.383484 
	C249.168045,222.573807 250.038940,219.509186 247.386581,215.816833 
	C246.547028,214.648056 246.303696,213.050995 245.570953,211.062164 
	C249.799820,211.588989 253.140793,212.005188 257.267944,212.519348 
	C256.495667,215.079651 255.733810,217.605423 254.671097,220.641052 
	C254.324097,221.599808 254.277939,222.048706 254.231781,222.497620 
	C254.710571,222.234299 255.189377,221.970978 255.668182,221.707642 
M247.280472,230.427567 
	C247.111923,230.889313 246.943375,231.351044 246.774811,231.812759 
	C247.132690,231.506317 247.490555,231.199875 247.280472,230.427567 
z"/>
<path fill="#EB6B00" opacity="1.000000" stroke="none" 
	d="
M271.677643,80.688202 
	C272.773682,79.767433 273.869720,78.846680 274.441864,78.366013 
	C275.744171,79.537933 276.877350,80.270470 277.617157,81.288803 
	C278.811493,82.932755 281.042938,85.648109 280.558655,86.358711 
	C278.818695,88.911804 276.389862,91.344208 273.664124,92.710480 
	C272.522858,93.282532 269.262665,91.545959 268.257812,90.012436 
	C266.825165,87.826004 266.581268,84.860649 265.787537,82.080742 
	C265.449921,82.310547 264.263306,83.118286 262.046570,84.627235 
	C261.368988,82.061577 260.806366,79.931221 260.110779,77.297523 
	C258.953735,77.404976 257.085144,77.578499 255.216568,77.752029 
	C255.088837,77.421333 254.961121,77.090645 254.833405,76.759956 
	C258.571655,74.353172 262.309906,71.946396 266.048157,69.539612 
	C266.433472,69.887192 266.818817,70.234764 267.204132,70.582344 
	C266.061279,73.459099 264.918427,76.335861 263.775574,79.212616 
	C264.006683,79.377449 264.237823,79.542282 264.468964,79.707115 
	C266.673859,77.736015 268.878754,75.764915 271.083649,73.793816 
	C271.409912,73.972664 271.736145,74.151520 272.062408,74.330368 
	C271.712555,75.944374 271.362701,77.558372 270.698822,79.667801 
	C270.336792,80.611465 270.288757,81.059708 270.240723,81.507950 
	C270.719696,81.234703 271.198669,80.961456 271.677643,80.688202 
M272.640259,83.462524 
	C272.313568,83.826668 271.986908,84.190819 271.660248,84.554985 
	C272.104126,84.410561 272.547974,84.266136 272.640259,83.462524 
z"/>
<path fill="#EB6C00" opacity="1.000000" stroke="none" 
	d="
M157.097015,69.042679 
	C156.552429,75.449112 151.982956,78.002365 144.888184,75.392563 
	C145.647934,77.125755 146.260971,78.524269 146.930405,80.051445 
	C144.938416,82.247353 142.906708,84.487038 140.282791,87.379562 
	C138.317291,85.210030 136.480118,83.182159 134.340851,81.048943 
	C134.038757,80.943596 134.085983,81.006561 133.982605,80.709991 
	C133.229935,79.913689 132.580673,79.413956 131.960175,78.955132 
	C131.988968,78.996040 132.063370,79.062920 132.063370,79.062920 
	C132.855911,77.393074 133.527939,74.366768 134.461487,74.283813 
	C138.949966,73.884979 139.008087,65.839523 144.875336,68.489250 
	C145.465714,68.755875 145.972824,69.206940 146.760529,69.734444 
	C147.192932,66.979126 144.474411,62.423332 150.356400,63.056061 
	C151.256424,63.152874 152.080383,63.956814 152.939514,64.433708 
	C152.033112,64.667686 151.117767,64.872688 150.224365,65.148735 
	C149.821198,65.273308 149.461731,65.539368 148.219528,66.200500 
	C151.101166,66.817177 153.162689,67.258347 155.770996,68.010887 
	C156.577545,68.562401 156.837280,68.802536 157.097015,69.042679 
M140.205429,77.086205 
	C139.722595,78.661324 139.239746,80.236435 138.234238,83.516640 
	C140.735580,81.949478 142.359589,80.931984 144.156647,79.806076 
	C142.036301,77.185989 140.321671,75.067223 138.485748,72.798599 
	C137.088089,75.064651 136.035446,76.771324 134.982803,78.477997 
	C135.225662,78.653122 135.468521,78.828239 135.711380,79.003365 
	C136.962982,78.344658 138.214584,77.685944 140.205429,77.086205 
M150.096039,71.790695 
	C151.668625,71.790695 153.241226,71.790695 154.813812,71.790695 
	C154.880051,71.319443 154.946274,70.848190 155.012497,70.376938 
	C152.458755,70.097504 149.905014,69.818062 147.290283,69.531952 
	C147.331558,73.898399 147.362320,73.933083 150.096039,71.790695 
z"/>
<path fill="#EA6B00" opacity="1.000000" stroke="none" 
	d="
M119.682610,97.307816 
	C119.105560,96.419083 118.528503,95.530342 117.668869,94.206398 
	C119.578163,94.122810 120.866341,94.066422 122.682968,94.330612 
	C123.986031,94.751625 124.760651,94.852051 126.406487,95.065437 
	C124.988708,94.150162 124.335403,93.728409 123.682098,93.306656 
	C122.595612,91.816612 117.768822,90.451042 123.559296,88.678993 
	C124.000374,88.544006 124.044044,87.110451 124.627266,86.141510 
	C124.982086,86.002510 124.909439,85.935173 125.062553,86.307648 
	C126.504829,87.122368 127.793983,87.564606 129.040955,87.960960 
	C128.998749,87.915070 128.911163,87.826317 128.911163,87.826317 
	C130.562073,89.822594 132.212967,91.818871 133.873093,93.826286 
	C132.288498,97.799553 129.531296,99.002159 125.282074,97.617943 
	C126.851013,98.705528 128.419952,99.793114 130.616287,101.315605 
	C129.202988,101.651909 128.502060,101.818695 127.318649,101.685928 
	C126.388588,101.338394 125.941017,101.290428 125.493439,101.242462 
	C125.766724,101.720718 126.040009,102.198975 126.313293,102.677231 
	C126.194267,104.442245 126.658531,106.660812 125.758392,107.818451 
	C125.120850,108.638359 122.514023,108.426804 121.006516,107.961716 
	C118.253700,107.112404 115.664154,105.733894 113.006508,104.576118 
	C113.152718,104.037331 113.298920,103.498543 113.445129,102.959755 
	C116.865860,103.974197 120.286598,104.988647 123.707329,106.003098 
	C123.931923,105.497238 124.156525,104.991379 124.381119,104.485519 
	C122.080399,103.247902 119.688828,102.149933 117.506577,100.730217 
	C115.629059,99.508751 114.992126,98.176765 118.711578,98.345337 
	C120.361092,99.092392 121.484245,99.509117 122.607391,99.925850 
	C122.702988,99.716461 122.798592,99.507065 122.894188,99.297676 
	C121.823662,98.634392 120.753136,97.971100 119.682610,97.307816 
M124.283646,89.527802 
	C124.457268,89.959099 124.630898,90.390396 124.804520,90.821693 
	C124.866226,90.447052 124.927940,90.072403 124.283646,89.527802 
z"/>
<path fill="#EB6C00" opacity="1.000000" stroke="none" 
	d="
M108.352600,135.925476 
	C109.043755,135.846527 109.467873,135.829514 109.608437,135.621170 
	C110.388245,134.465393 111.099159,133.263123 111.833656,132.076767 
	C112.282364,133.529816 112.731079,134.982864 113.561668,137.672562 
	C114.826073,135.505417 115.898895,133.666641 117.167908,131.491592 
	C113.241737,130.843094 109.958549,130.300781 105.757919,129.606949 
	C106.297523,127.521011 106.221191,124.737938 107.539833,123.657722 
	C108.667366,122.734055 111.393494,123.786087 113.415329,123.923233 
	C115.550919,124.068092 117.689819,124.164398 120.105759,125.104797 
	C118.091888,125.971909 116.078026,126.839012 112.617271,128.329102 
	C122.685112,128.877060 116.073631,135.068314 119.156311,139.236664 
	C113.624245,138.867111 109.498947,138.591553 105.217026,138.305511 
	C105.217026,135.471237 105.217026,133.381866 105.217026,131.292496 
	C105.746353,131.154755 106.275681,131.016998 106.805008,130.879242 
	C107.188225,132.552521 107.571434,134.225800 108.352600,135.925476 
z"/>
<path fill="#EA6B00" opacity="1.000000" stroke="none" 
	d="
M249.681671,62.683472 
	C252.735001,56.957409 255.003250,62.416088 257.617279,62.948509 
	C257.571533,63.463531 257.525787,63.978554 257.480042,64.493576 
	C255.740540,64.243729 254.001038,63.993877 251.267944,63.601318 
	C252.666412,65.246254 253.668671,66.425179 255.278687,68.318954 
	C252.691116,68.318954 250.633926,68.318954 248.576721,68.318954 
	C248.450500,68.685677 248.324280,69.052406 248.198059,69.419128 
	C249.688324,70.433838 251.178574,71.448555 252.668839,72.463264 
	C252.395752,72.849861 252.122681,73.236465 251.849594,73.623062 
	C250.990982,73.623062 249.969772,73.927460 249.301743,73.570648 
	C246.324265,71.980301 244.430878,68.646248 240.429535,68.435822 
	C239.859406,68.405838 239.479568,64.757065 239.010849,62.395309 
	C239.010056,62.007473 238.937347,62.090660 239.296509,61.919281 
	C240.104309,60.136162 240.552933,58.524429 240.962738,56.963051 
	C240.923904,57.013401 240.832703,57.102036 240.832703,57.102036 
	C242.221542,56.776058 243.701828,55.977654 244.979721,56.224957 
	C247.446686,56.702374 249.595627,57.932037 248.628357,61.565979 
	C247.193390,61.029636 246.119247,60.071785 244.218002,58.376362 
	C242.984192,61.037540 241.875397,63.429092 240.766602,65.820648 
	C241.277405,66.230103 241.788208,66.639557 242.299026,67.049019 
	C243.808273,63.601406 248.970520,67.802040 249.681671,62.683472 
z"/>
<path fill="#EA6B00" opacity="1.000000" stroke="none" 
	d="
M156.365646,61.443737 
	C156.266449,60.631840 155.820129,59.644051 156.127213,59.038021 
	C157.576965,56.176960 164.931961,54.635029 167.506042,56.440083 
	C168.198181,54.960255 168.900009,53.459702 169.601852,51.959145 
	C169.869476,52.006168 170.137100,52.053188 170.404724,52.100212 
	C170.765762,56.636993 171.126801,61.173775 171.536713,66.324631 
	C168.905838,63.029976 166.507477,60.026485 163.889023,56.747375 
	C158.612381,61.504074 166.633759,64.841278 164.180115,69.702553 
	C162.671494,67.018608 161.637863,64.736145 160.174515,62.774200 
	C159.500534,61.870583 157.985291,61.594433 156.579620,61.203281 
	C156.307755,61.372795 156.365646,61.443737 156.365646,61.443737 
z"/>
<path fill="#EB6B00" opacity="1.000000" stroke="none" 
	d="
M221.821808,59.261196 
	C220.094650,61.365181 218.824585,61.791889 218.799713,59.333992 
	C216.566223,59.506283 212.765762,60.076550 212.691177,59.762363 
	C211.940094,56.598331 211.381378,53.245968 211.713135,50.044430 
	C211.830322,48.913559 214.555481,47.288296 216.064590,47.315132 
	C217.213058,47.335556 218.321442,49.610138 219.988525,51.492542 
	C217.098480,51.182587 214.306396,50.684216 214.247375,50.907619 
	C213.665955,53.109322 213.538361,55.430866 213.257584,57.937069 
	C216.126755,56.857590 217.794571,56.230103 219.833649,55.462936 
	C220.222000,53.657349 220.789993,51.016590 221.357971,48.375828 
	C221.845383,48.419353 222.332794,48.462875 222.820190,48.506401 
	C222.527756,51.852489 222.235306,55.198582 221.843658,58.936485 
	C221.744476,59.328300 221.821808,59.261196 221.821808,59.261196 
z"/>
<path fill="#EB6B00" opacity="1.000000" stroke="none" 
	d="
M113.940872,116.266739 
	C112.087585,115.579376 110.512642,115.089149 108.937698,114.598923 
	C109.126923,113.994041 109.316154,113.389160 109.505379,112.784286 
	C113.683685,113.940193 117.861992,115.096107 122.040291,116.252014 
	C122.030838,116.740906 122.021378,117.229797 122.011925,117.718689 
	C119.627510,118.322456 117.243103,118.926231 114.637093,119.586113 
	C116.798927,120.316032 118.849937,121.008545 120.900948,121.701050 
	C120.755348,122.238190 120.609741,122.775330 120.464134,123.312477 
	C116.249893,122.295120 112.035645,121.277771 107.821396,120.260414 
	C107.917061,119.763458 108.012718,119.266502 108.108383,118.769539 
	C110.145325,118.000984 112.182266,117.232430 113.940872,116.266739 
z"/>
<path fill="#EB6B00" opacity="1.000000" stroke="none" 
	d="
M288.476135,129.388062 
	C292.168213,129.014938 295.860321,128.641815 299.552399,128.268692 
	C299.835022,128.553024 300.117615,128.837357 300.400238,129.121689 
	C298.911316,130.594910 297.422424,132.068130 295.782227,133.691025 
	C297.507080,133.945724 299.209106,134.197052 300.911133,134.448380 
	C300.900696,134.854263 300.890259,135.260147 300.879822,135.666016 
	C296.722900,136.181442 292.565979,136.696854 288.409058,137.212265 
	C288.200104,136.785492 287.991150,136.358719 287.782227,135.931931 
	C289.632263,134.379074 291.482300,132.826218 294.147583,130.589081 
	C291.703766,131.207916 290.191010,131.591003 288.678284,131.974075 
	C288.539795,131.278854 288.401306,130.583633 288.398315,129.616364 
	C288.533813,129.344330 288.476135,129.388062 288.476135,129.388062 
z"/>
<path fill="#EA6B00" opacity="1.000000" stroke="none" 
	d="
M286.308594,165.214935 
	C290.197205,163.127686 293.742645,163.449661 296.478058,166.218430 
	C297.572815,167.326508 297.879578,169.826294 297.535950,171.483322 
	C297.364319,172.310898 294.921814,172.667542 293.506470,173.237198 
	C293.320404,172.828003 293.134369,172.418808 292.948303,172.009613 
	C293.854523,171.246078 294.760742,170.482529 296.248627,169.228897 
	C294.291016,168.075577 292.663513,166.689606 290.803467,166.215118 
	C289.970734,166.002670 288.671753,167.617752 287.584351,168.403503 
	C287.827271,168.803925 288.070190,169.204361 288.313110,169.604797 
	C289.255707,169.051132 290.198303,168.497482 291.634888,167.653671 
	C291.634888,169.481705 291.634888,170.785858 291.634888,172.558838 
	C289.627045,172.220047 286.972717,172.440735 286.527832,171.553497 
	C285.684631,169.872009 286.108459,167.555130 286.308594,165.214935 
z"/>
<path fill="#EB6C00" opacity="1.000000" stroke="none" 
	d="
M239.043762,61.963703 
	C238.088669,63.276520 237.099899,64.633110 235.768616,66.459602 
	C234.955017,64.271179 234.307861,62.530491 233.586258,60.589497 
	C232.698471,61.795719 231.856232,62.940083 231.013992,64.084442 
	C230.572159,63.868538 230.130341,63.652630 229.688507,63.436722 
	C231.188416,59.563316 232.688324,55.689907 234.188248,51.816498 
	C234.673996,51.911369 235.159760,52.006241 235.645523,52.101116 
	C235.851593,54.212749 236.057678,56.324379 236.281860,58.621525 
	C239.903793,53.871929 239.903793,53.871929 240.901093,56.721458 
	C240.832703,57.102036 240.923904,57.013401 240.632782,57.124329 
	C239.873566,58.853722 239.405457,60.472191 238.937347,62.090660 
	C238.937347,62.090660 239.010056,62.007473 239.043762,61.963703 
z"/>
<path fill="#EA6A00" opacity="1.000000" stroke="none" 
	d="
M283.900391,113.139664 
	C282.096497,111.268250 280.292633,109.396828 277.839874,106.852219 
	C282.419861,104.897667 285.936005,103.397118 289.705231,101.672607 
	C289.958282,101.448654 289.955048,101.521004 289.955048,101.521004 
	C291.457031,103.344063 292.958984,105.167130 294.460968,106.990196 
	C293.993195,107.433449 293.525452,107.876701 293.057678,108.319962 
	C291.792816,107.146385 290.527924,105.972809 288.812439,104.381134 
	C288.812439,106.160652 288.812439,107.901611 288.812439,110.704865 
	C286.487610,109.073586 284.806213,107.893776 282.272339,106.115799 
	C283.021088,109.013451 283.475769,110.772980 283.873444,112.873322 
	C283.816437,113.214127 283.900391,113.139656 283.900391,113.139664 
z"/>
<path fill="#EB6B00" opacity="1.000000" stroke="none" 
	d="
M113.565598,165.317596 
	C115.998077,166.097534 118.430550,166.877487 120.863022,167.657440 
	C120.069328,169.495071 119.275635,171.332687 118.414352,173.469269 
	C118.346764,173.768219 118.429283,173.704773 118.429283,173.704773 
	C117.170807,174.045242 115.783180,174.897614 114.680756,174.619507 
	C112.392502,174.042252 108.813118,173.323318 108.343048,171.843521 
	C107.204620,168.259720 109.861938,166.266205 113.559738,165.547745 
	C113.646309,165.256683 113.565598,165.317596 113.565598,165.317596 
M111.096176,171.612747 
	C114.470711,174.049576 116.611160,171.885696 118.786423,169.643784 
	C115.681976,166.616440 112.751427,167.156235 111.096176,171.612747 
z"/>
<path fill="#EA6B00" opacity="1.000000" stroke="none" 
	d="
M288.778290,120.258026 
	C291.757446,119.833611 294.736633,119.409203 298.693573,118.845497 
	C296.489410,120.968811 295.048431,122.356941 293.607452,123.745079 
	C293.846344,124.068527 294.085236,124.391968 294.324127,124.715416 
	C295.759033,124.516045 297.193970,124.316681 298.628906,124.117317 
	C298.795654,124.629974 298.962402,125.142639 299.129181,125.655296 
	C295.767700,126.655853 292.406219,127.656403 288.760437,129.022522 
	C288.476135,129.388062 288.533813,129.344330 288.551483,129.329407 
	C287.795105,128.793976 287.021057,128.273468 285.280701,127.103172 
	C288.028473,126.420670 289.793732,125.982201 291.559021,125.543724 
	C291.659760,125.150307 291.760498,124.756882 291.861267,124.363457 
	C289.823608,123.905190 287.785980,123.446922 284.442841,122.695038 
	C286.130768,121.916428 287.359680,121.349556 288.719727,120.479294 
	C288.850861,120.175911 288.778290,120.258026 288.778290,120.258026 
z"/>
<path fill="#EB6B00" opacity="1.000000" stroke="none" 
	d="
M186.254303,61.228584 
	C183.035767,62.879089 180.803192,61.555901 180.128738,58.958363 
	C179.389725,56.112068 179.708862,52.991020 179.566864,49.989708 
	C181.746109,50.197655 184.792953,49.580856 185.931274,50.778316 
	C188.637039,53.624626 189.264282,57.380749 186.254303,61.228584 
M184.554214,52.092430 
	C183.432297,52.261555 182.310364,52.430679 181.188446,52.599804 
	C181.693100,54.802921 182.197739,57.006042 182.702377,59.209160 
	C183.599304,59.070312 184.496231,58.931461 185.393158,58.792610 
	C185.237061,56.788040 185.080963,54.783470 184.554214,52.092430 
z"/>
<path fill="#EB6B00" opacity="1.000000" stroke="none" 
	d="
M292.878479,146.950668 
	C291.266724,145.581177 289.258667,144.449814 288.226410,142.732071 
	C287.775146,141.981155 289.207550,138.898132 289.978149,138.821518 
	C293.254608,138.495758 296.650452,138.649902 299.884857,139.256729 
	C300.498688,139.371887 301.317871,143.424377 300.773285,143.794876 
	C298.626709,145.255219 295.974152,145.971924 293.154541,146.916931 
	C292.799774,146.869263 292.878479,146.950668 292.878479,146.950668 
M292.109528,140.438583 
	C291.677155,141.392288 291.244781,142.346008 290.753906,143.428802 
	C291.675446,143.698593 292.198792,144.046631 292.587036,143.933044 
	C294.696838,143.315674 296.773346,142.584427 298.861298,141.892365 
	C296.863098,141.287613 294.864899,140.682877 292.109528,140.438583 
z"/>
<path fill="#EA6B00" opacity="1.000000" stroke="none" 
	d="
M289.640228,154.433853 
	C292.187073,154.617599 294.767639,154.603455 297.273163,155.030014 
	C301.355499,155.725037 300.744476,160.107086 299.525818,161.053497 
	C297.512909,162.616669 294.026001,163.103302 291.361603,162.703110 
	C289.717926,162.456207 288.217010,159.854996 287.169159,158.016098 
	C286.901703,157.546753 288.600677,155.956894 289.545471,154.626846 
	C289.694794,154.371841 289.640228,154.433853 289.640228,154.433853 
M296.245972,157.064011 
	C295.505646,156.729630 294.697235,156.020233 294.039307,156.139709 
	C292.710571,156.380981 291.430939,157.013824 290.237823,157.677185 
	C290.129303,157.737549 290.640533,159.759827 291.124664,159.888260 
	C292.945709,160.371323 294.874725,160.447372 296.763275,160.675888 
	C296.816620,159.605026 296.869965,158.534164 296.245972,157.064011 
z"/>
<path fill="#EA6B00" opacity="1.000000" stroke="none" 
	d="
M118.311905,173.806885 
	C120.396713,174.438370 123.894165,172.843796 123.873184,176.852692 
	C123.865250,178.366974 122.548943,179.874374 121.829048,181.384918 
	C121.296570,181.165604 120.764084,180.946304 120.231606,180.726990 
	C120.464783,179.278946 120.697960,177.830887 120.931137,176.382843 
	C120.560066,176.228287 120.188995,176.073730 119.817924,175.919189 
	C119.385132,176.962311 119.146126,178.156815 118.476082,179.014618 
	C117.350563,180.455566 116.141388,182.103088 114.580742,182.809830 
	C113.871674,183.130936 111.146400,181.258499 111.231827,180.645172 
	C111.473030,178.913452 112.695427,177.318375 113.531181,175.669464 
	C113.885254,175.878326 114.239326,176.087173 114.593407,176.296036 
	C114.482674,177.794098 114.371941,179.292160 114.261200,180.790222 
	C114.497810,180.792038 114.734421,180.793839 114.971031,180.795639 
	C115.957954,178.682358 116.944878,176.569077 118.180542,174.080292 
	C118.429283,173.704773 118.346764,173.768219 118.311905,173.806885 
z"/>
<path fill="#EB6C00" opacity="1.000000" stroke="none" 
	d="
M116.449272,140.044006 
	C117.880371,143.088974 117.880371,143.088974 112.599510,142.153244 
	C109.968933,147.375732 115.356270,145.215546 117.616676,147.344345 
	C112.715744,147.344345 108.581024,147.344345 104.446297,147.344345 
	C104.325668,147.043549 104.205032,146.742752 104.084396,146.441971 
	C105.147873,146.278824 106.444603,146.437592 107.219490,145.876160 
	C108.346619,145.059494 109.097687,143.723816 110.154251,142.432007 
	C108.084732,142.051346 106.593231,141.777008 105.101723,141.502655 
	C105.120438,141.005447 105.139160,140.508224 105.157875,140.011002 
	C108.775681,140.011002 112.393486,140.011002 116.449272,140.044006 
z"/>
<path fill="#EB6B00" opacity="1.000000" stroke="none" 
	d="
M209.992279,55.101807 
	C208.629562,56.999386 207.261597,58.493919 205.893616,59.988449 
	C204.472824,58.686905 203.052017,57.385357 201.631226,56.083809 
	C201.918427,55.800491 202.205612,55.517178 202.492798,55.233860 
	C204.186356,55.825249 205.879898,56.416641 207.573456,57.008030 
	C207.803024,56.654472 208.032593,56.300919 208.262177,55.947361 
	C205.538223,54.099621 201.291458,53.005947 203.352448,48.578262 
	C203.773682,47.673294 205.882721,46.962448 207.047714,47.156898 
	C208.282181,47.362938 209.318695,48.754978 210.441666,49.629032 
	C210.130493,50.061424 209.819336,50.493816 209.508179,50.926205 
	C208.220642,50.289505 206.933090,49.652805 205.645554,49.016106 
	C205.427689,49.258545 205.209839,49.500980 204.991989,49.743416 
	C206.656998,51.395195 208.322006,53.046978 209.992279,55.101807 
z"/>
<path fill="#EB6B00" opacity="1.000000" stroke="none" 
	d="
M221.712601,59.368366 
	C223.022583,56.031834 224.364426,52.655235 225.836044,48.952087 
	C227.850677,49.762005 230.017395,50.633060 232.184113,51.504116 
	C232.081039,51.839989 231.977966,52.175858 231.874893,52.511726 
	C230.039597,52.818062 228.204300,53.124397 226.104477,53.474884 
	C227.825638,55.129826 228.862015,56.126331 229.898392,57.122833 
	C228.486633,57.298637 227.074875,57.474449 224.544525,57.789562 
	C226.113251,59.419662 227.467529,60.826916 228.821808,62.234165 
	C228.596558,62.671074 228.371292,63.107983 228.146042,63.544895 
	C226.095810,62.350117 224.045563,61.155342 221.908569,59.610878 
	C221.821808,59.261196 221.744476,59.328300 221.712601,59.368366 
z"/>
<path fill="#E96A00" opacity="1.000000" stroke="none" 
	d="
M131.696060,84.323547 
	C130.991394,83.232803 130.055847,82.211090 129.698746,81.016449 
	C129.561020,80.555687 130.737305,79.702133 131.689148,79.045227 
	C132.063370,79.062920 131.988968,78.996040 132.001068,79.387070 
	C132.704102,80.187584 133.395035,80.597076 134.085983,81.006561 
	C134.085983,81.006561 134.038757,80.943596 134.036697,80.904404 
	C134.959763,83.003151 135.907913,85.131569 136.798294,87.283875 
	C137.136581,88.101593 137.341995,88.974274 137.607971,89.821907 
	C136.617889,89.852600 135.563263,90.116257 134.651627,89.863731 
	C132.943604,89.390602 131.318390,88.618553 129.284943,87.898575 
	C128.911163,87.826317 128.998749,87.915070 128.898727,87.638519 
	C127.502281,86.886375 126.205864,86.410774 124.909439,85.935173 
	C124.909439,85.935173 124.982086,86.002510 125.014610,86.039871 
	C125.696365,80.533768 128.455276,85.103394 130.700577,85.302589 
	C131.608948,85.660400 132.054901,85.709946 132.500854,85.759499 
	C132.232590,85.280846 131.964325,84.802193 131.696060,84.323547 
z"/>
<path fill="#EA6B00" opacity="1.000000" stroke="none" 
	d="
M283.779846,113.256691 
	C286.160675,112.373833 288.510590,111.103813 291.013214,110.613533 
	C293.893921,110.049194 296.193573,111.150696 295.943420,114.664536 
	C295.869843,115.698120 295.228027,116.739098 294.647644,117.649864 
	C294.526093,117.840538 293.013580,117.471725 293.013824,117.362549 
	C293.016083,116.259781 293.199860,115.157394 293.482178,112.813210 
	C290.729004,113.561981 288.290833,114.225090 285.113739,115.089157 
	C286.955078,117.197731 287.953064,118.340569 288.864685,119.870712 
	C288.778290,120.258026 288.850861,120.175911 288.883209,120.141182 
	C283.392303,119.631454 282.401367,118.376396 283.933105,113.488556 
	C283.900391,113.139656 283.816437,113.214127 283.779846,113.256691 
z"/>
<path fill="#EB6B00" opacity="1.000000" stroke="none" 
	d="
M113.679489,165.218536 
	C111.252388,165.180405 108.792122,165.180405 106.331848,165.180405 
	C106.296501,164.748123 106.261147,164.315826 106.225792,163.883545 
	C109.715462,163.050598 113.205124,162.217667 116.694794,161.384735 
	C116.660049,160.782471 116.625298,160.180222 116.590553,159.577957 
	C115.019112,159.577957 113.445709,159.528427 111.876755,159.590729 
	C109.994972,159.665466 108.116982,159.835571 106.237358,159.964386 
	C106.169899,159.378906 106.102440,158.793442 106.034981,158.207962 
	C109.666245,157.824768 113.293869,157.285568 116.932106,157.200485 
	C117.596191,157.184967 118.931450,159.081558 118.843941,159.988052 
	C118.712326,161.351364 117.787163,162.788315 116.827705,163.861771 
	C116.302208,164.449707 115.013695,164.355637 113.817429,164.943359 
	C113.565598,165.317596 113.646309,165.256683 113.679489,165.218536 
z"/>
<path fill="#EB6C00" opacity="1.000000" stroke="none" 
	d="
M191.681885,57.353821 
	C191.661957,58.419628 191.437012,59.136631 191.212067,59.853634 
	C190.511017,59.283966 189.324890,58.808170 189.193298,58.128281 
	C188.639679,55.267654 187.634308,52.137062 188.345490,49.528122 
	C188.747894,48.051933 192.158798,47.395836 194.214645,46.370361 
	C194.534073,47.012341 194.853485,47.654320 195.172913,48.296303 
	C193.824219,49.164257 192.475540,50.032211 190.769852,51.129917 
	C191.466797,51.479050 191.964905,51.698795 192.433380,51.969749 
	C193.283569,52.461475 194.116150,52.983673 194.956070,53.493149 
	C194.120392,54.006630 193.183395,54.412262 192.483200,55.069981 
	C191.983124,55.539719 191.800919,56.347866 191.681885,57.353821 
z"/>
<path fill="#EA6A00" opacity="1.000000" stroke="none" 
	d="
M289.934631,101.421257 
	C285.639648,99.018181 285.522888,99.042068 277.915039,103.848129 
	C277.581299,103.574364 277.247589,103.300591 276.913849,103.026825 
	C280.228516,99.963547 283.543152,96.900269 287.550690,93.196655 
	C288.077087,95.636459 288.644379,98.265915 289.583374,101.208191 
	C289.955048,101.521004 289.958282,101.448654 289.934631,101.421257 
z"/>
<path fill="#EB6C00" opacity="1.000000" stroke="none" 
	d="
M285.050659,176.954269 
	C284.081940,176.212952 283.490479,175.513474 282.620422,174.484512 
	C287.128082,174.973129 291.120483,175.405884 296.520355,175.991196 
	C294.610016,177.119064 293.268585,177.911026 291.705414,178.833923 
	C292.283875,179.622040 293.202698,180.873917 294.121521,182.125778 
	C293.882751,182.412048 293.643982,182.698303 293.405212,182.984573 
	C290.746124,180.988419 288.087006,178.992279 285.050659,176.954269 
z"/>
<path fill="#EB6C00" opacity="1.000000" stroke="none" 
	d="
M104.999496,153.012146 
	C105.089767,151.476074 105.179886,150.362335 105.168335,150.505096 
	C109.541542,150.830261 113.644287,151.135315 117.747025,151.440369 
	C117.827621,151.701859 117.908218,151.963348 117.988808,152.224854 
	C115.712204,152.792191 113.436142,153.361740 111.158798,153.926102 
	C109.678055,154.293030 106.953705,152.939697 107.662888,156.434967 
	C107.670090,156.470474 106.064789,156.920197 106.042603,156.861710 
	C105.620171,155.747604 105.322723,154.586121 104.999496,153.012146 
z"/>
<path fill="#EB6C00" opacity="1.000000" stroke="none" 
	d="
M289.721893,154.340668 
	C288.972534,152.160889 288.196106,150.012253 287.220917,147.313644 
	C289.534424,147.168365 290.806824,147.088455 292.478882,146.979614 
	C292.878479,146.950668 292.799774,146.869263 292.746887,146.830475 
	C295.396576,147.445053 298.099152,148.098434 300.801697,148.751801 
	C300.830963,149.047028 300.860229,149.342239 300.889496,149.637466 
	C298.617401,149.759262 296.341278,150.027161 294.074310,149.964264 
	C291.495514,149.892715 289.831146,150.591797 289.791779,153.973663 
	C289.640228,154.433853 289.694794,154.371841 289.721893,154.340668 
z"/>
<path fill="#EA6A00" opacity="1.000000" stroke="none" 
	d="
M157.413208,69.180588 
	C156.837280,68.802536 156.577545,68.562401 156.141632,68.123680 
	C155.014450,65.487259 154.063431,63.049416 152.846207,59.929237 
	C154.150040,60.425049 154.908661,60.713528 156.016464,61.222874 
	C156.365646,61.443737 156.307755,61.372795 156.281555,61.352707 
	C157.721802,64.403137 159.188232,67.473671 160.654648,70.544197 
	C160.448166,70.776901 160.241669,71.009605 160.035187,71.242310 
	C159.266586,70.601036 158.497986,69.959763 157.413208,69.180588 
z"/>
<path fill="#EB6C00" opacity="1.000000" stroke="none" 
	d="
M245.889832,234.883896 
	C245.564468,235.317429 245.055984,235.554459 244.547501,235.791473 
	C244.665268,235.419586 244.783051,235.047684 245.119019,234.486603 
	C245.460373,234.427429 245.583542,234.557404 245.889832,234.883896 
z"/>
<path fill="#000000" opacity="1.000000" stroke="none" 
	d="
M261.271729,100.771477 
	C273.202728,116.403809 278.037384,134.017136 275.806061,152.871384 
	C271.945374,185.493515 249.064407,210.299286 217.755783,216.696365 
	C190.292267,222.307831 166.185440,213.975342 147.516083,192.797409 
	C136.195282,179.955444 130.284088,164.719131 129.831192,147.118179 
	C129.213379,123.107666 138.444275,103.754799 156.187714,88.587944 
	C168.332718,78.206543 182.755920,72.346016 199.229172,71.898514 
	C215.869415,71.446472 231.249405,74.920242 244.562088,85.042999 
	C250.522110,89.574890 255.557648,95.322594 261.271729,100.771477 
M240.992554,133.226257 
	C241.327698,129.141525 241.965317,125.054054 241.928253,120.972702 
	C241.870300,114.590134 237.049301,108.404839 229.069550,111.875092 
	C226.414459,113.029747 223.466309,113.712753 220.584869,114.072220 
	C218.721832,114.304642 216.140244,114.172623 214.992462,113.058502 
	C214.051590,112.145248 214.021317,109.078674 214.851440,107.766052 
	C218.484863,102.020828 222.586899,96.572556 226.499268,91.002731 
	C227.466476,89.625771 228.360092,88.197098 229.287537,86.792198 
	C228.827759,86.220863 228.367981,85.649529 227.908203,85.078194 
	C216.323196,89.356331 204.738190,93.634476 193.153183,97.912613 
	C192.677429,97.584099 192.201660,97.255592 191.725891,96.927078 
	C195.374374,94.389481 199.022873,91.851883 202.671356,89.314285 
	C202.324539,88.838799 201.977722,88.363319 201.630905,87.887833 
	C200.142166,88.250061 198.542313,88.376877 197.184952,89.017456 
	C192.621201,91.171227 187.928604,93.165146 183.672409,95.836899 
	C169.000931,105.046616 157.315979,116.191025 158.945435,135.672913 
	C159.493179,142.221497 163.434387,148.043610 169.790390,149.986511 
	C175.938995,151.866043 182.025131,151.602600 188.030396,149.031998 
	C191.672852,147.472809 195.477890,146.293427 199.209885,144.943405 
	C199.530655,145.535858 199.851425,146.128311 200.172195,146.720764 
	C197.665787,149.434235 195.322586,152.325989 192.607590,154.811615 
	C189.829376,157.355148 186.686798,159.500687 183.703705,161.820435 
	C190.025497,163.000732 194.863098,160.620621 199.688690,157.881851 
	C202.826767,156.100800 207.735992,152.700577 209.308456,153.768967 
	C214.508911,157.302322 213.105255,151.780014 214.624832,150.685257 
	C215.789337,149.846329 216.442352,148.297440 217.322861,147.064316 
	C217.976105,147.289658 218.629333,147.514999 219.282578,147.740356 
	C218.228775,152.027756 217.174957,156.315170 216.097061,160.700577 
	C223.303177,159.630569 236.487656,145.309647 240.992554,133.226257 
M221.346283,176.006607 
	C226.242844,175.104233 226.092346,171.011093 227.218460,166.629974 
	C219.728699,167.455750 212.772308,168.608643 205.784454,168.849533 
	C201.540497,168.995819 200.794678,170.687653 200.942352,174.320343 
	C201.165695,179.814468 201.000656,185.324402 201.000656,190.827606 
	C200.604462,190.825851 200.208267,190.824097 199.812073,190.822327 
	C199.812073,183.600784 199.812073,176.379242 199.812073,169.179474 
	C190.951172,168.328842 182.663055,167.533203 174.415192,166.741425 
	C174.318130,172.718338 176.716248,176.006256 182.036102,176.932724 
	C183.798019,177.239563 185.545609,177.627762 187.303024,177.961533 
	C196.333328,179.676559 199.505020,188.365036 193.647598,196.207230 
	C189.730927,194.920593 188.268356,191.688919 186.867813,188.117325 
	C185.577484,184.826767 184.760193,180.252670 179.095169,182.527283 
	C180.423172,187.403534 181.745270,192.239960 183.057037,197.079193 
	C184.788605,203.467056 188.662704,207.371750 195.344482,208.796036 
	C203.634109,210.563049 213.859909,207.869766 216.343811,201.891739 
	C218.913864,195.706329 220.347504,189.048767 222.301956,182.518463 
	C218.374451,181.453491 216.834717,182.247299 215.401306,185.734695 
	C213.813446,189.597839 213.205124,194.974228 207.539413,195.952194 
	C201.945816,188.210892 204.746948,180.008957 213.502975,177.974380 
	C215.861404,177.426376 218.186295,176.733994 221.346283,176.006607 
z"/>
<path fill="#000000" opacity="1.000000" stroke="none" 
	d="
M276.512268,212.501831 
	C276.802063,212.038330 277.281036,211.765579 277.760010,211.492828 
	C277.712067,211.941162 277.664124,212.389511 277.349823,212.954224 
	C276.956116,212.944580 276.828796,212.818604 276.512268,212.501831 
z"/>
<path fill="#000000" opacity="1.000000" stroke="none" 
	d="
M271.249451,213.081360 
	C270.737518,213.063354 270.484314,212.785995 270.231079,212.508606 
	C270.656769,212.613068 271.082428,212.717529 271.249451,213.081360 
z"/>
<path fill="#000000" opacity="1.000000" stroke="none" 
	d="
M247.564453,230.660492 
	C247.490555,231.199875 247.132690,231.506317 246.774826,231.812775 
	C246.943375,231.351044 247.111923,230.889313 247.564453,230.660492 
z"/>
<path fill="#000000" opacity="1.000000" stroke="none" 
	d="
M255.476196,221.507614 
	C255.189377,221.970978 254.710571,222.234299 254.231781,222.497620 
	C254.277939,222.048706 254.324097,221.599808 254.633408,221.030975 
	C255.025772,221.043213 255.154984,221.175385 255.476196,221.507614 
z"/>
<path fill="#000000" opacity="1.000000" stroke="none" 
	d="
M272.816040,83.792114 
	C272.547974,84.266136 272.104126,84.410561 271.660248,84.554977 
	C271.986908,84.190819 272.313568,83.826668 272.816040,83.792114 
z"/>
<path fill="#000000" opacity="1.000000" stroke="none" 
	d="
M271.488525,80.497833 
	C271.198669,80.961456 270.719696,81.234703 270.240723,81.507950 
	C270.288757,81.059708 270.336792,80.611465 270.651184,80.046799 
	C271.044830,80.056061 271.172150,80.181755 271.488525,80.497833 
z"/>
<path fill="#000000" opacity="1.000000" stroke="none" 
	d="
M139.835815,77.056717 
	C138.214584,77.685944 136.962982,78.344658 135.711380,79.003365 
	C135.468521,78.828239 135.225662,78.653122 134.982803,78.477997 
	C136.035446,76.771324 137.088089,75.064651 138.485748,72.798599 
	C140.321671,75.067223 142.036301,77.185989 144.156647,79.806076 
	C142.359589,80.931984 140.735580,81.949478 138.234238,83.516640 
	C139.239746,80.236435 139.722595,78.661324 139.835815,77.056717 
z"/>
<path fill="#000000" opacity="1.000000" stroke="none" 
	d="
M150.043823,72.183929 
	C147.362320,73.933083 147.331558,73.898399 147.290283,69.531952 
	C149.905014,69.818062 152.458755,70.097504 155.012497,70.376938 
	C154.946274,70.848190 154.880051,71.319443 154.813812,71.790695 
	C153.241226,71.790695 151.668625,71.790695 150.043823,72.183929 
z"/>
<path fill="#000000" opacity="1.000000" stroke="none" 
	d="
M133.982605,80.709991 
	C133.395035,80.597076 132.704102,80.187584 131.972290,79.346161 
	C132.580673,79.413956 133.229935,79.913689 133.982605,80.709991 
z"/>
<path fill="#000000" opacity="1.000000" stroke="none" 
	d="
M125.062553,86.307648 
	C126.205864,86.410774 127.502281,86.886375 128.940918,87.684418 
	C127.793983,87.564606 126.504829,87.122368 125.062553,86.307648 
z"/>
<path fill="#000000" opacity="1.000000" stroke="none" 
	d="
M119.494125,97.501053 
	C120.753136,97.971100 121.823662,98.634392 122.894188,99.297676 
	C122.798592,99.507065 122.702988,99.716461 122.607391,99.925850 
	C121.484245,99.509117 120.361092,99.092392 119.084198,98.379082 
	C119.055511,97.953102 119.180573,97.823692 119.494125,97.501053 
z"/>
<path fill="#000000" opacity="1.000000" stroke="none" 
	d="
M123.494080,93.499886 
	C124.335403,93.728409 124.988708,94.150162 126.406487,95.065437 
	C124.760651,94.852051 123.986031,94.751625 123.071625,94.366272 
	C123.056580,93.951935 123.181320,93.822525 123.494080,93.499886 
z"/>
<path fill="#000000" opacity="1.000000" stroke="none" 
	d="
M126.503120,102.488403 
	C126.040009,102.198975 125.766724,101.720718 125.493439,101.242462 
	C125.941017,101.290428 126.388588,101.338394 126.952545,101.652313 
	C126.943596,102.045364 126.818275,102.172470 126.503120,102.488403 
z"/>
<path fill="#000000" opacity="1.000000" stroke="none" 
	d="
M124.636642,89.612778 
	C124.927940,90.072403 124.866226,90.447052 124.804520,90.821693 
	C124.630898,90.390396 124.457268,89.959099 124.636642,89.612778 
z"/>
<path fill="#000000" opacity="1.000000" stroke="none" 
	d="
M249.492813,62.493248 
	C248.970520,67.802040 243.808273,63.601406 242.299026,67.049019 
	C241.788208,66.639557 241.277405,66.230103 240.766602,65.820648 
	C241.875397,63.429092 242.984192,61.037540 244.218002,58.376362 
	C246.119247,60.071785 247.193390,61.029636 248.596039,61.955856 
	C249.051041,62.050491 249.177505,62.176758 249.492813,62.493248 
z"/>
<path fill="#000000" opacity="1.000000" stroke="none" 
	d="
M239.296509,61.919281 
	C239.405457,60.472191 239.873566,58.853722 240.671631,57.073975 
	C240.552933,58.524429 240.104309,60.136162 239.296509,61.919281 
z"/>
<path fill="#000000" opacity="1.000000" stroke="none" 
	d="
M110.866272,171.335098 
	C112.751427,167.156235 115.681976,166.616440 118.786423,169.643784 
	C116.611160,171.885696 114.470711,174.049576 110.866272,171.335098 
z"/>
<path fill="#000000" opacity="1.000000" stroke="none" 
	d="
M184.739532,52.435665 
	C185.080963,54.783470 185.237061,56.788040 185.393158,58.792610 
	C184.496231,58.931461 183.599304,59.070312 182.702377,59.209160 
	C182.197739,57.006042 181.693100,54.802921 181.188446,52.599804 
	C182.310364,52.430679 183.432297,52.261555 184.739532,52.435665 
z"/>
<path fill="#000000" opacity="1.000000" stroke="none" 
	d="
M292.488098,140.258362 
	C294.864899,140.682877 296.863098,141.287613 298.861298,141.892365 
	C296.773346,142.584427 294.696838,143.315674 292.587036,143.933044 
	C292.198792,144.046631 291.675446,143.698593 290.753906,143.428802 
	C291.244781,142.346008 291.677155,141.392288 292.488098,140.258362 
z"/>
<path fill="#000000" opacity="1.000000" stroke="none" 
	d="
M296.584656,157.263657 
	C296.869965,158.534164 296.816620,159.605026 296.763275,160.675888 
	C294.874725,160.447372 292.945709,160.371323 291.124664,159.888260 
	C290.640533,159.759827 290.129303,157.737549 290.237823,157.677185 
	C291.430939,157.013824 292.710571,156.380981 294.039307,156.139709 
	C294.697235,156.020233 295.505646,156.729630 296.584656,157.263657 
z"/>
<path fill="#000000" opacity="1.000000" stroke="none" 
	d="
M131.504135,84.512009 
	C131.964325,84.802193 132.232590,85.280846 132.500854,85.759499 
	C132.054901,85.709946 131.608948,85.660400 131.047424,85.345886 
	C131.058624,84.954109 131.185410,84.827293 131.504135,84.512009 
z"/>
<path fill="#ED6D00" opacity="1.000000" stroke="none" 
	d="
M240.965820,133.646881 
	C236.487656,145.309647 223.303177,159.630569 216.097061,160.700577 
	C217.174957,156.315170 218.228775,152.027756 219.282578,147.740356 
	C218.629333,147.514999 217.976105,147.289658 217.322861,147.064316 
	C216.442352,148.297440 215.789337,149.846329 214.624832,150.685257 
	C213.105255,151.780014 214.508911,157.302322 209.308456,153.768967 
	C207.735992,152.700577 202.826767,156.100800 199.688690,157.881851 
	C194.863098,160.620621 190.025497,163.000732 183.703705,161.820435 
	C186.686798,159.500687 189.829376,157.355148 192.607590,154.811615 
	C195.322586,152.325989 197.665787,149.434235 200.172195,146.720764 
	C199.851425,146.128311 199.530655,145.535858 199.209885,144.943405 
	C195.477890,146.293427 191.672852,147.472809 188.030396,149.031998 
	C182.025131,151.602600 175.938995,151.866043 169.790390,149.986511 
	C163.434387,148.043610 159.493179,142.221497 158.945435,135.672913 
	C157.315979,116.191025 169.000931,105.046616 183.672409,95.836899 
	C187.928604,93.165146 192.621201,91.171227 197.184952,89.017456 
	C198.542313,88.376877 200.142166,88.250061 201.630905,87.887833 
	C201.977722,88.363319 202.324539,88.838799 202.671356,89.314285 
	C199.022873,91.851883 195.374374,94.389481 191.725891,96.927078 
	C192.201660,97.255592 192.677429,97.584099 193.153183,97.912613 
	C204.738190,93.634476 216.323196,89.356331 227.908203,85.078194 
	C228.367981,85.649529 228.827759,86.220863 229.287537,86.792198 
	C228.360092,88.197098 227.466476,89.625771 226.499268,91.002731 
	C222.586899,96.572556 218.484863,102.020828 214.851440,107.766052 
	C214.021317,109.078674 214.051590,112.145248 214.992462,113.058502 
	C216.140244,114.172623 218.721832,114.304642 220.584869,114.072220 
	C223.466309,113.712753 226.414459,113.029747 229.069550,111.875092 
	C237.049301,108.404839 241.870300,114.590134 241.928253,120.972702 
	C241.965317,125.054054 241.327698,129.141525 240.965820,133.646881 
z"/>
<path fill="#EC6D00" opacity="1.000000" stroke="none" 
	d="
M220.936432,176.057251 
	C218.186295,176.733994 215.861404,177.426376 213.502975,177.974380 
	C204.746948,180.008957 201.945816,188.210892 207.539413,195.952194 
	C213.205124,194.974228 213.813446,189.597839 215.401306,185.734695 
	C216.834717,182.247299 218.374451,181.453491 222.301956,182.518463 
	C220.347504,189.048767 218.913864,195.706329 216.343811,201.891739 
	C213.859909,207.869766 203.634109,210.563049 195.344482,208.796036 
	C188.662704,207.371750 184.788605,203.467056 183.057037,197.079193 
	C181.745270,192.239960 180.423172,187.403534 179.095169,182.527283 
	C184.760193,180.252670 185.577484,184.826767 186.867813,188.117325 
	C188.268356,191.688919 189.730927,194.920593 193.647598,196.207230 
	C199.505020,188.365036 196.333328,179.676559 187.303024,177.961533 
	C185.545609,177.627762 183.798019,177.239563 182.036102,176.932724 
	C176.716248,176.006256 174.318130,172.718338 174.415192,166.741425 
	C182.663055,167.533203 190.951172,168.328842 199.812073,169.179474 
	C199.812073,176.379242 199.812073,183.600784 199.812073,190.822327 
	C200.208267,190.824097 200.604462,190.825851 201.000656,190.827606 
	C201.000656,185.324402 201.165695,179.814468 200.942352,174.320343 
	C200.794678,170.687653 201.540497,168.995819 205.784454,168.849533 
	C212.772308,168.608643 219.728699,167.455750 227.218460,166.629974 
	C226.092346,171.011093 226.242844,175.104233 220.936432,176.057251 
z"/>
</svg>